# xmcd
#
# Track frame offsets: 
#        150
#        43824
#        72483
#        103961
#        115141
#        192883
#
# Disc length: 2910 seconds
#
# Revision: 2
# Processed by: cddbd v1.5.2PL0 Copyright (c) Steve Scherf et al.
# Submitted via: ExactAudioCopy v1.0b3
#
DISCID=570b5c06
DTITLE=The Gary Moore Band - Grinding Stone
DYEAR=1973
DGENRE=Blues
TTITLE0=Grinding Stone
TTITLE1=Time To Heal
TTITLE2=Sail Across The Mountain
TTITLE3=The Energy Dance
TTITLE4=Spirit
TTITLE5=Boogie My Way Back Home
EXTD=
EXTT0=
EXTT1=
EXTT2=
EXTT3=
EXTT4=
EXTT5=
PLAYORDER=
